<svg width="22" height="21" viewBox="0 0 22 21" fill="none" xmlns="http://www.w3.org/2000/svg">
<path d="M0.75 7.12722C0.75 6.7769 0.75 6.60174 0.764617 6.45421C0.905601 5.03127 2.03127 3.9056 3.45421 3.76462C3.60174 3.75 3.78636 3.75 4.15558 3.75C4.29785 3.75 4.36899 3.75 4.42939 3.74634C5.20061 3.69963 5.87595 3.21288 6.16414 2.496C6.18671 2.43986 6.20781 2.37657 6.25 2.25C6.29219 2.12343 6.31329 2.06014 6.33586 2.004C6.62405 1.28712 7.29939 0.800365 8.07061 0.753658C8.13101 0.75 8.19772 0.75 8.33114 0.75H13.1689C13.3023 0.75 13.369 0.75 13.4294 0.753658C14.2006 0.800365 14.876 1.28712 15.1641 2.004C15.1867 2.06014 15.2078 2.12343 15.25 2.25C15.2922 2.37657 15.3133 2.43986 15.3359 2.496C15.624 3.21288 16.2994 3.69963 17.0706 3.74634C17.131 3.75 17.2021 3.75 17.3444 3.75C17.7136 3.75 17.8983 3.75 18.0458 3.76462C19.4687 3.9056 20.5944 5.03127 20.7354 6.45421C20.75 6.60174 20.75 6.7769 20.75 7.12722V14.95C20.75 16.6302 20.75 17.4702 20.423 18.112C20.1354 18.6765 19.6765 19.1354 19.112 19.423C18.4702 19.75 17.6302 19.75 15.95 19.75H5.55C3.86984 19.75 3.02976 19.75 2.38803 19.423C1.82354 19.1354 1.3646 18.6765 1.07698 18.112C0.75 17.4702 0.75 16.6302 0.75 14.95V7.12722Z" stroke="#92D841" stroke-opacity="0.9" stroke-width="1.5" stroke-linecap="round" stroke-linejoin="round"/>
<path d="M10.75 15.25C12.9591 15.25 14.75 13.4591 14.75 11.25C14.75 9.04086 12.9591 7.25 10.75 7.25C8.54086 7.25 6.75 9.04086 6.75 11.25C6.75 13.4591 8.54086 15.25 10.75 15.25Z" stroke="#92D841" stroke-opacity="0.9" stroke-width="1.5" stroke-linecap="round" stroke-linejoin="round"/>
</svg>
